<mxfile host="Electron" agent="Mozilla/5.0 (Windows NT 10.0; Win64; x64) AppleWebKit/537.36 (KHTML, like Gecko) draw.io/24.7.17 Chrome/128.0.6613.36 Electron/32.0.1 Safari/537.36" version="24.7.17">
  <diagram name="PÃ¡gina-1" id="kKBKMEyVlORLd3pp8Gom">
    <mxGraphModel dx="780" dy="496" grid="1" gridSize="10" guides="1" tooltips="1" connect="1" arrows="1" fold="1" page="1" pageScale="1" pageWidth="827" pageHeight="1169" math="0" shadow="0">
      <root>
        <mxCell id="0" />
        <mxCell id="1" parent="0" />
        <mxCell id="Upk1R_LHM_AzDDc6ebxE-3" value="SPA" style="swimlane;whiteSpace=wrap;html=1;fillColor=#1ba1e2;fontColor=#ffffff;strokeColor=#006EAF;" parent="1" vertex="1">
          <mxGeometry x="150" y="50" width="509" height="450" as="geometry" />
        </mxCell>
        <mxCell id="rFL1SJs7jFUsXzOqKkRG-2" value="Angular" style="swimlane;whiteSpace=wrap;html=1;fillColor=#e51400;fontColor=#ffffff;strokeColor=#B20000;" vertex="1" parent="Upk1R_LHM_AzDDc6ebxE-3">
          <mxGeometry x="23" y="40" width="190" height="150" as="geometry" />
        </mxCell>
        <mxCell id="rFL1SJs7jFUsXzOqKkRG-3" value="Components" style="shape=folder;fontStyle=1;spacingTop=10;tabWidth=40;tabHeight=14;tabPosition=left;html=1;whiteSpace=wrap;fillColor=#1ba1e2;fontColor=#ffffff;strokeColor=#006EAF;" vertex="1" parent="rFL1SJs7jFUsXzOqKkRG-2">
          <mxGeometry x="13" y="60" width="164" height="60" as="geometry" />
        </mxCell>
        <mxCell id="rFL1SJs7jFUsXzOqKkRG-8" value="Services" style="shape=folder;fontStyle=1;spacingTop=10;tabWidth=40;tabHeight=14;tabPosition=left;html=1;whiteSpace=wrap;fillColor=#1ba1e2;fontColor=#ffffff;strokeColor=#006EAF;" vertex="1" parent="Upk1R_LHM_AzDDc6ebxE-3">
          <mxGeometry x="36" y="350" width="164" height="60" as="geometry" />
        </mxCell>
        <mxCell id="rFL1SJs7jFUsXzOqKkRG-4" value="" style="endArrow=open;endSize=12;dashed=1;html=1;rounded=0;exitX=0.5;exitY=1;exitDx=0;exitDy=0;exitPerimeter=0;entryX=0.5;entryY=0.217;entryDx=0;entryDy=0;entryPerimeter=0;" edge="1" parent="Upk1R_LHM_AzDDc6ebxE-3" source="rFL1SJs7jFUsXzOqKkRG-3" target="rFL1SJs7jFUsXzOqKkRG-8">
          <mxGeometry width="160" relative="1" as="geometry">
            <mxPoint x="97" y="160" as="sourcePoint" />
            <mxPoint x="104" y="290" as="targetPoint" />
          </mxGeometry>
        </mxCell>
        <mxCell id="rFL1SJs7jFUsXzOqKkRG-11" value="Interceptors" style="shape=folder;fontStyle=1;spacingTop=10;tabWidth=40;tabHeight=14;tabPosition=left;html=1;whiteSpace=wrap;fillColor=#1ba1e2;fontColor=#ffffff;strokeColor=#006EAF;" vertex="1" parent="Upk1R_LHM_AzDDc6ebxE-3">
          <mxGeometry x="310" y="100" width="150" height="60" as="geometry" />
        </mxCell>
        <mxCell id="rFL1SJs7jFUsXzOqKkRG-12" value="HTTP" style="shape=folder;fontStyle=1;spacingTop=10;tabWidth=40;tabHeight=14;tabPosition=left;html=1;whiteSpace=wrap;fillColor=#1ba1e2;fontColor=#ffffff;strokeColor=#006EAF;" vertex="1" parent="Upk1R_LHM_AzDDc6ebxE-3">
          <mxGeometry x="310" y="350" width="150" height="60" as="geometry" />
        </mxCell>
        <mxCell id="rFL1SJs7jFUsXzOqKkRG-13" value="Interfaces" style="shape=folder;fontStyle=1;spacingTop=10;tabWidth=40;tabHeight=14;tabPosition=left;html=1;whiteSpace=wrap;fillColor=#1ba1e2;fontColor=#ffffff;strokeColor=#006EAF;" vertex="1" parent="Upk1R_LHM_AzDDc6ebxE-3">
          <mxGeometry x="179.5" y="230" width="150" height="60" as="geometry" />
        </mxCell>
        <mxCell id="rFL1SJs7jFUsXzOqKkRG-14" value="" style="endArrow=open;endSize=12;dashed=1;html=1;rounded=0;exitX=0;exitY=0;exitDx=164;exitDy=37;exitPerimeter=0;entryX=0.497;entryY=0.283;entryDx=0;entryDy=0;entryPerimeter=0;" edge="1" parent="Upk1R_LHM_AzDDc6ebxE-3" source="rFL1SJs7jFUsXzOqKkRG-3" target="rFL1SJs7jFUsXzOqKkRG-13">
          <mxGeometry width="160" relative="1" as="geometry">
            <mxPoint x="115" y="170" as="sourcePoint" />
            <mxPoint x="115" y="373" as="targetPoint" />
            <Array as="points">
              <mxPoint x="254" y="137" />
            </Array>
          </mxGeometry>
        </mxCell>
        <mxCell id="rFL1SJs7jFUsXzOqKkRG-15" value="" style="endArrow=open;endSize=12;dashed=1;html=1;rounded=0;exitX=0.5;exitY=1;exitDx=0;exitDy=0;exitPerimeter=0;entryX=0.52;entryY=0.228;entryDx=0;entryDy=0;entryPerimeter=0;" edge="1" parent="Upk1R_LHM_AzDDc6ebxE-3" source="rFL1SJs7jFUsXzOqKkRG-11" target="rFL1SJs7jFUsXzOqKkRG-12">
          <mxGeometry width="160" relative="1" as="geometry">
            <mxPoint x="128" y="170" as="sourcePoint" />
            <mxPoint x="385" y="362" as="targetPoint" />
          </mxGeometry>
        </mxCell>
        <mxCell id="rFL1SJs7jFUsXzOqKkRG-37" value="" style="endArrow=open;endSize=12;dashed=1;html=1;rounded=0;entryX=0.5;entryY=1;entryDx=0;entryDy=0;entryPerimeter=0;exitX=0;exitY=0;exitDx=164;exitDy=14;exitPerimeter=0;" edge="1" parent="Upk1R_LHM_AzDDc6ebxE-3" source="rFL1SJs7jFUsXzOqKkRG-8" target="rFL1SJs7jFUsXzOqKkRG-13">
          <mxGeometry width="160" relative="1" as="geometry">
            <mxPoint x="118" y="360" as="sourcePoint" />
            <mxPoint x="255" y="340" as="targetPoint" />
            <Array as="points">
              <mxPoint x="255" y="364" />
            </Array>
          </mxGeometry>
        </mxCell>
        <mxCell id="rFL1SJs7jFUsXzOqKkRG-38" value="" style="endArrow=open;endSize=12;dashed=1;html=1;rounded=0;entryX=0;entryY=0;entryDx=0;entryDy=37;entryPerimeter=0;exitX=0;exitY=0;exitDx=164;exitDy=37;exitPerimeter=0;" edge="1" parent="Upk1R_LHM_AzDDc6ebxE-3" source="rFL1SJs7jFUsXzOqKkRG-8" target="rFL1SJs7jFUsXzOqKkRG-12">
          <mxGeometry width="160" relative="1" as="geometry">
            <mxPoint x="210" y="397" as="sourcePoint" />
            <mxPoint x="265" y="300" as="targetPoint" />
            <Array as="points" />
          </mxGeometry>
        </mxCell>
      </root>
    </mxGraphModel>
  </diagram>
</mxfile>
